<svg width="49" height="49" viewBox="0 0 49 49" fill="none" xmlns="http://www.w3.org/2000/svg">
<path d="M24.6685 0.708542C37.901 0.708629 48.6284 11.4359 48.6284 24.6685C48.6283 37.901 37.901 48.6284 24.6685 48.6285C11.4359 48.6285 0.708584 37.9011 0.708496 24.6685C0.708496 11.4359 11.4358 0.708542 24.6685 0.708542Z" fill="url(#paint0_linear_20_1155)"/>
<path d="M24.6685 0.708542C37.901 0.708629 48.6284 11.4359 48.6284 24.6685C48.6283 37.901 37.901 48.6284 24.6685 48.6285C11.4359 48.6285 0.708584 37.9011 0.708496 24.6685C0.708496 11.4359 11.4358 0.708542 24.6685 0.708542Z" stroke="#E5E7EB"/>
<g clip-path="url(#clip0_20_1155)">
<g clip-path="url(#clip1_20_1155)">
<path d="M33.6532 24.6683C33.6532 24.6999 33.6532 24.7315 33.6532 24.7631C33.6392 26.0442 32.4739 26.9146 31.1929 26.9146H27.7568C26.8268 26.9146 26.0722 27.6692 26.0722 28.5992C26.0722 28.7186 26.0862 28.8344 26.1073 28.9467C26.181 29.3047 26.3354 29.6487 26.4863 29.9961C26.7004 30.4805 26.911 30.9613 26.911 31.4702C26.911 32.5863 26.1529 33.6006 25.0368 33.6462C24.914 33.6498 24.7911 33.6533 24.6648 33.6533C19.7055 33.6533 15.6833 29.6311 15.6833 24.6683C15.6833 19.7056 19.7055 15.6834 24.6683 15.6834C29.631 15.6834 33.6532 19.7056 33.6532 24.6683ZM20.1758 25.7915C20.1758 25.4936 20.0575 25.2079 19.8469 24.9973C19.6362 24.7867 19.3506 24.6683 19.0527 24.6683C18.7548 24.6683 18.4692 24.7867 18.2585 24.9973C18.0479 25.2079 17.9296 25.4936 17.9296 25.7915C17.9296 26.0893 18.0479 26.375 18.2585 26.5856C18.4692 26.7962 18.7548 26.9146 19.0527 26.9146C19.3506 26.9146 19.6362 26.7962 19.8469 26.5856C20.0575 26.375 20.1758 26.0893 20.1758 25.7915ZM20.1758 22.4221C20.4737 22.4221 20.7593 22.3038 20.97 22.0932C21.1806 21.8825 21.2989 21.5969 21.2989 21.299C21.2989 21.0011 21.1806 20.7155 20.97 20.5048C20.7593 20.2942 20.4737 20.1759 20.1758 20.1759C19.8779 20.1759 19.5923 20.2942 19.3816 20.5048C19.171 20.7155 19.0527 21.0011 19.0527 21.299C19.0527 21.5969 19.171 21.8825 19.3816 22.0932C19.5923 22.3038 19.8779 22.4221 20.1758 22.4221ZM25.7914 19.0528C25.7914 18.7549 25.6731 18.4692 25.4624 18.2586C25.2518 18.048 24.9661 17.9296 24.6683 17.9296C24.3704 17.9296 24.0847 18.048 23.8741 18.2586C23.6635 18.4692 23.5452 18.7549 23.5452 19.0528C23.5452 19.3506 23.6635 19.6363 23.8741 19.8469C24.0847 20.0576 24.3704 20.1759 24.6683 20.1759C24.9661 20.1759 25.2518 20.0576 25.4624 19.8469C25.6731 19.6363 25.7914 19.3506 25.7914 19.0528ZM29.1607 22.4221C29.4586 22.4221 29.7443 22.3038 29.9549 22.0932C30.1655 21.8825 30.2839 21.5969 30.2839 21.299C30.2839 21.0011 30.1655 20.7155 29.9549 20.5048C29.7443 20.2942 29.4586 20.1759 29.1607 20.1759C28.8629 20.1759 28.5772 20.2942 28.3666 20.5048C28.1559 20.7155 28.0376 21.0011 28.0376 21.299C28.0376 21.5969 28.1559 21.8825 28.3666 22.0932C28.5772 22.3038 28.8629 22.4221 29.1607 22.4221Z" fill="white"/>
</g>
</g>
<defs>
<linearGradient id="paint0_linear_20_1155" x1="0.708496" y1="24.6683" x2="48.6281" y2="24.6683" gradientUnits="userSpaceOnUse">
<stop stop-color="#A855F7"/>
<stop offset="1" stop-color="#EC4899"/>
</linearGradient>
<clipPath id="clip0_20_1155">
<rect width="17.9698" height="17.9698" fill="white" transform="translate(15.6833 15.6834)"/>
</clipPath>
<clipPath id="clip1_20_1155">
<path d="M15.6833 15.6834H33.6532V33.6533H15.6833V15.6834Z" fill="white"/>
</clipPath>
</defs>
</svg>
