<svg width="49" height="49" viewBox="0 0 49 49" fill="none" xmlns="http://www.w3.org/2000/svg">
<path d="M24.5781 0.708542C37.8107 0.708629 48.5381 11.4359 48.5381 24.6685C48.538 37.901 37.8106 48.6284 24.5781 48.6285C11.3456 48.6285 0.618252 37.9011 0.618164 24.6685C0.618164 11.4359 11.3455 0.708542 24.5781 0.708542Z" fill="url(#paint0_linear_20_1183)"/>
<path d="M24.5781 0.708542C37.8107 0.708629 48.5381 11.4359 48.5381 24.6685C48.538 37.901 37.8106 48.6284 24.5781 48.6285C11.3456 48.6285 0.618252 37.9011 0.618164 24.6685C0.618164 11.4359 11.3455 0.708542 24.5781 0.708542Z" stroke="#E5E7EB"/>
<g clip-path="url(#clip0_20_1183)">
<g clip-path="url(#clip1_20_1183)">
<path d="M17.8392 17.9297C17.8392 17.3084 17.3374 16.8065 16.7161 16.8065C16.0949 16.8065 15.593 17.3084 15.593 17.9297V29.7224C15.593 31.2737 16.8495 32.5302 18.4008 32.5302H32.4398C33.061 32.5302 33.5629 32.0283 33.5629 31.407C33.5629 30.7858 33.061 30.2839 32.4398 30.2839H18.4008C18.0919 30.2839 17.8392 30.0312 17.8392 29.7224V17.9297ZM32.1098 20.9691C32.5486 20.5304 32.5486 19.8179 32.1098 19.3792C31.6711 18.9405 30.9586 18.9405 30.5199 19.3792L26.8242 23.0784L24.8096 21.0639C24.3709 20.6251 23.6584 20.6251 23.2197 21.0639L19.2888 24.9948C18.8501 25.4335 18.8501 26.146 19.2888 26.5847C19.7275 27.0234 20.44 27.0234 20.8787 26.5847L24.0164 23.4505L26.031 25.4651C26.4697 25.9038 27.1822 25.9038 27.6209 25.4651L32.1133 20.9726L32.1098 20.9691Z" fill="white"/>
</g>
</g>
<defs>
<linearGradient id="paint0_linear_20_1183" x1="0.618164" y1="24.6683" x2="48.5378" y2="24.6683" gradientUnits="userSpaceOnUse">
<stop stop-color="#3B82F6"/>
<stop offset="0.5" stop-color="#8B5CF6"/>
<stop offset="1" stop-color="#06B6D4"/>
</linearGradient>
<clipPath id="clip0_20_1183">
<rect width="17.9698" height="17.9698" fill="white" transform="translate(15.593 15.6834)"/>
</clipPath>
<clipPath id="clip1_20_1183">
<path d="M15.593 15.6834H33.5629V33.6533H15.593V15.6834Z" fill="white"/>
</clipPath>
</defs>
</svg>
