<svg width="49" height="49" viewBox="0 0 49 49" fill="none" xmlns="http://www.w3.org/2000/svg">
<path d="M24.6687 0.708542C37.9013 0.708629 48.6287 11.4359 48.6287 24.6685C48.6286 37.901 37.9012 48.6284 24.6687 48.6285C11.4361 48.6285 0.708828 37.9011 0.70874 24.6685C0.70874 11.4359 11.4361 0.708542 24.6687 0.708542Z" fill="url(#paint0_linear_20_1211)"/>
<path d="M24.6687 0.708542C37.9013 0.708629 48.6287 11.4359 48.6287 24.6685C48.6286 37.901 37.9012 48.6284 24.6687 48.6285C11.4361 48.6285 0.708828 37.9011 0.70874 24.6685C0.70874 11.4359 11.4361 0.708542 24.6687 0.708542Z" stroke="#E5E7EB"/>
<g clip-path="url(#clip0_20_1211)">
<g clip-path="url(#clip1_20_1211)">
<path d="M17.3542 26.2267L23.6963 32.1476C23.9596 32.3933 24.307 32.5302 24.6685 32.5302C25.03 32.5302 25.3775 32.3933 25.6407 32.1476L31.9828 26.2267C33.0498 25.2334 33.6534 23.8401 33.6534 22.3835V22.1799C33.6534 19.7266 31.881 17.6348 29.4628 17.2312C27.8624 16.9645 26.2339 17.4874 25.0897 18.6316L24.6685 19.0528L24.2473 18.6316C23.1032 17.4874 21.4747 16.9645 19.8742 17.2312C17.456 17.6348 15.6836 19.7266 15.6836 22.1799V22.3835C15.6836 23.8401 16.2873 25.2334 17.3542 26.2267Z" fill="white"/>
</g>
</g>
<defs>
<linearGradient id="paint0_linear_20_1211" x1="0.70874" y1="24.6683" x2="48.6283" y2="24.6683" gradientUnits="userSpaceOnUse">
<stop stop-color="#22C55E"/>
<stop offset="1" stop-color="#14B8A6"/>
</linearGradient>
<clipPath id="clip0_20_1211">
<rect width="17.9698" height="17.9698" fill="white" transform="translate(15.6836 15.6834)"/>
</clipPath>
<clipPath id="clip1_20_1211">
<path d="M15.6836 15.6834H33.6534V33.6533H15.6836V15.6834Z" fill="white"/>
</clipPath>
</defs>
</svg>
