<svg width="22" height="21" viewBox="0 0 22 21" fill="none" xmlns="http://www.w3.org/2000/svg">
<path d="M11.1141 0.0742226C16.8257 0.074255 21.4559 4.70446 21.4559 10.416C21.4559 16.1276 16.8257 20.7578 11.1141 20.7578C5.40257 20.7578 0.772371 16.1276 0.772339 10.416C0.772339 4.70444 5.40255 0.0742226 11.1141 0.0742226Z" fill="url(#paint0_linear_17_1003)"/>
<path d="M11.1141 0.0742226C16.8257 0.074255 21.4559 4.70446 21.4559 10.416C21.4559 16.1276 16.8257 20.7578 11.1141 20.7578C5.40257 20.7578 0.772371 16.1276 0.772339 10.416C0.772339 4.70444 5.40255 0.0742226 11.1141 0.0742226Z" stroke="#E5E7EB"/>
<g clip-path="url(#clip0_17_1003)">
<g clip-path="url(#clip1_17_1003)">
<path d="M10.1447 7.61507H12.0838C12.143 7.61507 12.1915 7.66354 12.1915 7.72279V8.26143H10.037V7.72279C10.037 7.66354 10.0855 7.61507 10.1447 7.61507ZM9.39061 7.72279V8.26143H8.5288C8.05346 8.26143 7.66699 8.64789 7.66699 9.12324V10.416H10.2524H11.976H14.5615V9.12324C14.5615 8.64789 14.175 8.26143 13.6997 8.26143H12.8379V7.72279C12.8379 7.3067 12.4999 6.96871 12.0838 6.96871H10.1447C9.72861 6.96871 9.39061 7.3067 9.39061 7.72279ZM14.5615 10.8469H11.976V11.2778C11.976 11.5161 11.7835 11.7087 11.5451 11.7087H10.6833C10.445 11.7087 10.2524 11.5161 10.2524 11.2778V10.8469H7.66699V12.5705C7.66699 13.0458 8.05346 13.4323 8.5288 13.4323H13.6997C14.175 13.4323 14.5615 13.0458 14.5615 12.5705V10.8469Z" fill="white"/>
</g>
</g>
<defs>
<linearGradient id="paint0_linear_17_1003" x1="0.772339" y1="10.416" x2="21.4558" y2="10.416" gradientUnits="userSpaceOnUse">
<stop stop-color="#3B82F6"/>
<stop offset="0.5" stop-color="#8B5CF6"/>
<stop offset="1" stop-color="#06B6D4"/>
</linearGradient>
<clipPath id="clip0_17_1003">
<rect width="6.89449" height="6.89449" fill="white" transform="translate(7.66699 6.96871)"/>
</clipPath>
<clipPath id="clip1_17_1003">
<path d="M7.66699 6.96871H14.5615V13.8632H7.66699V6.96871Z" fill="white"/>
</clipPath>
</defs>
</svg>
