<svg width="69" height="68" viewBox="0 0 69 68" fill="none" xmlns="http://www.w3.org/2000/svg">
<path d="M34.4637 0.323765C53.1324 0.323794 68.2665 15.4578 68.2665 34.1265C68.2665 52.7952 53.1324 67.9292 34.4637 67.9292C15.7951 67.9292 0.66104 52.7952 0.661011 34.1265C0.661011 15.4578 15.795 0.323765 34.4637 0.323765Z" fill="url(#paint0_linear_17_886)"/>
<path d="M34.4637 0.323765C53.1324 0.323794 68.2665 15.4578 68.2665 34.1265C68.2665 52.7952 53.1324 67.9292 34.4637 67.9292C15.7951 67.9292 0.66104 52.7952 0.661011 34.1265C0.661011 15.4578 15.795 0.323765 34.4637 0.323765Z" stroke="#E5E7EB"/>
<g clip-path="url(#clip0_17_886)">
<g clip-path="url(#clip1_17_886)">
<path d="M28.1258 21.2392C25.5015 21.2392 23.3723 23.3683 23.3723 25.9927V41.8377C23.3723 44.462 25.5015 46.5912 28.1258 46.5912H42.3863H43.9708C44.8472 46.5912 45.5553 45.8831 45.5553 45.0067C45.5553 44.1303 44.8472 43.4222 43.9708 43.4222V40.2532C44.8472 40.2532 45.5553 39.5451 45.5553 38.6687V22.8237C45.5553 21.9472 44.8472 21.2392 43.9708 21.2392H42.3863H28.1258ZM28.1258 40.2532H40.8018V43.4222H28.1258C27.2494 43.4222 26.5413 42.7141 26.5413 41.8377C26.5413 40.9613 27.2494 40.2532 28.1258 40.2532ZM29.7103 28.3694C29.7103 27.9337 30.0668 27.5772 30.5026 27.5772H40.0096C40.4453 27.5772 40.8018 27.9337 40.8018 28.3694C40.8018 28.8052 40.4453 29.1617 40.0096 29.1617H30.5026C30.0668 29.1617 29.7103 28.8052 29.7103 28.3694ZM30.5026 30.7462H40.0096C40.4453 30.7462 40.8018 31.1027 40.8018 31.5384C40.8018 31.9742 40.4453 32.3307 40.0096 32.3307H30.5026C30.0668 32.3307 29.7103 31.9742 29.7103 31.5384C29.7103 31.1027 30.0668 30.7462 30.5026 30.7462Z" fill="white"/>
</g>
</g>
<defs>
<linearGradient id="paint0_linear_17_886" x1="0.661011" y1="34.1264" x2="68.2664" y2="34.1264" gradientUnits="userSpaceOnUse">
<stop stop-color="#3B82F6"/>
<stop offset="1" stop-color="#06B6D4"/>
</linearGradient>
<clipPath id="clip0_17_886">
<rect width="22.183" height="25.352" fill="white" transform="translate(23.3723 21.2392)"/>
</clipPath>
<clipPath id="clip1_17_886">
<path d="M23.3723 21.2392H45.5553V46.5912H23.3723V21.2392Z" fill="white"/>
</clipPath>
</defs>
</svg>
