<svg width="69" height="68" viewBox="0 0 69 68" fill="none" xmlns="http://www.w3.org/2000/svg">
<path d="M34.4739 0.323765C53.1426 0.323794 68.2767 15.4578 68.2767 34.1265C68.2766 52.7952 53.1426 67.9292 34.4739 67.9292C15.8053 67.9292 0.671232 52.7952 0.671204 34.1265C0.671204 15.4578 15.8052 0.323765 34.4739 0.323765Z" fill="url(#paint0_linear_17_876)"/>
<path d="M34.4739 0.323765C53.1426 0.323794 68.2767 15.4578 68.2767 34.1265C68.2766 52.7952 53.1426 67.9292 34.4739 67.9292C15.8053 67.9292 0.671232 52.7952 0.671204 34.1265C0.671204 15.4578 15.8052 0.323765 34.4739 0.323765Z" stroke="#E5E7EB"/>
<g clip-path="url(#clip0_17_876)">
<g clip-path="url(#clip1_17_876)">
<path d="M46.5111 21.5512C46.9122 21.8483 47.1499 22.3236 47.1499 22.8238V26.3889V39.461C47.1499 41.6496 45.0207 43.4223 42.3964 43.4223C39.772 43.4223 37.6429 41.6496 37.6429 39.461C37.6429 37.2724 39.772 35.4998 42.3964 35.4998C42.9509 35.4998 43.4857 35.579 43.9809 35.7275V28.518L31.3049 32.3209V42.63C31.3049 44.8186 29.1757 46.5913 26.5514 46.5913C23.927 46.5913 21.7979 44.8186 21.7979 42.63C21.7979 40.4414 23.927 38.6688 26.5514 38.6688C27.1059 38.6688 27.6407 38.748 28.1359 38.8965V31.1424V27.5773C28.1359 26.8791 28.5963 26.2601 29.2648 26.0571L45.1098 21.3036C45.5901 21.16 46.11 21.2492 46.5111 21.5512Z" fill="white"/>
</g>
</g>
<defs>
<linearGradient id="paint0_linear_17_876" x1="0.671204" y1="34.1264" x2="68.2766" y2="34.1264" gradientUnits="userSpaceOnUse">
<stop stop-color="#EC4899"/>
<stop offset="1" stop-color="#F43F5E"/>
</linearGradient>
<clipPath id="clip0_17_876">
<rect width="25.352" height="25.352" fill="white" transform="translate(21.7979 21.2392)"/>
</clipPath>
<clipPath id="clip1_17_876">
<path d="M21.7979 21.2392H47.1499V46.5912H21.7979V21.2392Z" fill="white"/>
</clipPath>
</defs>
</svg>
