<svg width="69" height="68" viewBox="0 0 69 68" fill="none" xmlns="http://www.w3.org/2000/svg">
<path d="M34.4669 0.323765C53.1356 0.323794 68.2697 15.4578 68.2697 34.1265C68.2696 52.7952 53.1356 67.9292 34.4669 67.9292C15.7982 67.9292 0.664213 52.7952 0.664185 34.1265C0.664185 15.4578 15.7982 0.323765 34.4669 0.323765Z" fill="url(#paint0_linear_17_897)"/>
<path d="M34.4669 0.323765C53.1356 0.323794 68.2697 15.4578 68.2697 34.1265C68.2696 52.7952 53.1356 67.9292 34.4669 67.9292C15.7982 67.9292 0.664213 52.7952 0.664185 34.1265C0.664185 15.4578 15.7982 0.323765 34.4669 0.323765Z" stroke="#E5E7EB"/>
<g clip-path="url(#clip0_17_897)">
<g clip-path="url(#clip1_17_897)">
<path d="M35.2591 25.9927C31.3672 25.9927 28.0744 28.5427 26.9554 32.0583C28.6191 31.2166 30.4957 30.7462 32.4863 30.7462H36.8436C37.2794 30.7462 37.6359 31.1027 37.6359 31.5384C37.6359 31.9742 37.2794 32.3307 36.8436 32.3307H36.0514H32.4863C31.6643 32.3307 30.8671 32.4248 30.0996 32.5981C28.8172 32.8902 27.6238 33.4101 26.5642 34.1182C23.6873 36.0344 21.7909 39.3074 21.7909 43.0261V43.8183C21.7909 44.4769 22.3207 45.0067 22.9793 45.0067C23.6378 45.0067 24.1676 44.4769 24.1676 43.8183V43.0261C24.1676 40.6146 25.1926 38.4459 26.8316 36.9257C27.812 40.6642 31.2137 43.4222 35.2591 43.4222H35.3087C41.8497 43.3875 47.1429 36.9406 47.1429 28.9933C47.1429 26.884 46.7715 24.8786 46.0981 23.0713C45.9694 22.7296 45.4693 22.7444 45.296 23.0663C44.3651 24.8093 42.5231 25.9927 40.4088 25.9927H35.2591Z" fill="white"/>
</g>
</g>
<defs>
<linearGradient id="paint0_linear_17_897" x1="0.664185" y1="34.1264" x2="68.2695" y2="34.1264" gradientUnits="userSpaceOnUse">
<stop stop-color="#22C55E"/>
<stop offset="1" stop-color="#10B981"/>
</linearGradient>
<clipPath id="clip0_17_897">
<rect width="25.352" height="25.352" fill="white" transform="translate(21.7909 21.2392)"/>
</clipPath>
<clipPath id="clip1_17_897">
<path d="M21.7909 21.2392H47.1429V46.5912H21.7909V21.2392Z" fill="white"/>
</clipPath>
</defs>
</svg>
